<svg width="96" height="24" viewBox="0 0 96 24" fill="none" xmlns="http://www.w3.org/2000/svg">
<path d="M78.5625 22.9219H72.998L80.4375 1.71094H87.2722L94.6815 22.9219H89.1472L87.6653 18.3809H80.0444L78.5625 22.9219ZM81.2843 14.5723H86.4254L83.9456 6.95508H83.7641L81.2843 14.5723Z" fill="#0079EA"/>
<path d="M53.0685 22.9219V1.71094H58.2097V10.7637H58.5121L65.8609 1.71094H71.9698L64.1371 11.1738L72.0907 22.9219H65.9214L60.3871 14.5137L58.2097 17.1211V22.9219H53.0685Z" fill="#0079EA"/>
<path d="M32.1109 22.9219V1.71094H37.252V10.7637H37.5544L44.9032 1.71094H51.0121L43.1795 11.1738L51.1331 22.9219H44.9637L39.4294 14.5137L37.252 17.1211V22.9219H32.1109Z" fill="#0079EA"/>
<path d="M13.6633 22.9219H8.09879L15.5383 1.71094H22.373L29.7823 22.9219H24.248L22.7661 18.3809H15.1452L13.6633 22.9219ZM16.3851 14.5723H21.5262L19.0464 6.95508H18.8649L16.3851 14.5723Z" fill="#0079EA"/>
<path d="M5.8004 1.71094V22.9219H0.659271V1.71094H5.8004Z" fill="#0079EA"/>
</svg>
