<svg width="240" height="90" viewBox="0 0 240 90" fill="none" xmlns="http://www.w3.org/2000/svg">
  <rect x="8" y="16" width="64" height="64" rx="12" fill="#ECFDF3" stroke="#22C55E" stroke-width="2"/>
  <path d="M28 54C28 46 34 40 40 40C46 40 52 46 52 54C52 60 46 64 40 66C34 64 28 60 28 54Z" fill="#22C55E"/>
  <path d="M35 46C35 42 37.5 38 41 38C44.5 38 47 42 47 46C47 50 44.5 52 41 53C37.5 52 35 50 35 46Z" fill="#38BDF8"/>
  <text x="84" y="40" fill="#15803D" font-family="Pretendard, 'Noto Sans KR', Arial" font-size="18" font-weight="700">홍은청소년의집</text>
  <text x="84" y="64" fill="#1E293B" font-family="'Segoe UI', Arial" font-size="14" font-weight="600">HONGEUN YOUTH SHELTER</text>
</svg>
